# xmcd
#
# Track frame offsets:
#	150
#	23725
#	40823
#	55296
#	77693
#	91915
#	104953
#	121112
#	140618
#	153779
#	166459
#	187222
#	192585
#	202592
#	216527
#	234737
#	251127
#	270280
#	287578
#	301365
#
# Disc length: 4183 seconds
#
# Revision: 2
# Processed by: cddbd v1.5.2PL0 Copyright (c) Steve Scherf et al.
# Submitted via: audiograbber 1.83.01
#
DISCID=21105514
DTITLE=John Williamson - Mates On The Road [Disc 2]
DYEAR=2004
DGENRE=Country
TTITLE0=Teach Me To Drive, Dad (featuring Pixie Jenkins) (Live)
TTITLE1=Cape York Peninsula (Live)
TTITLE2=Crocodile Roll (Live)
TTITLE3=Wrinkles (Live)
TTITLE4=Diamantina Drover (Live)
TTITLE5=Amazing Day (Live)
TTITLE6=Three Sons (Live)
TTITLE7=Keeper Of The Stones (Live)
TTITLE8=A Thousand Feet (with Warren H. Williams) (Live)
TTITLE9=What A Place (featuring Warren H. Williams) (Live)
TTITLE10=Raining On The Rock (with Pixie Jenkins and Warren H. Williams) (Live)
TTITLE11=Chain Around My Ankle (Live)
TTITLE12=I Can't Feel Those Chains Any Longer (Live)
TTITLE13=Diggers Of The Anzac (Live)
TTITLE14=Waltzing Matilda (Live)
TTITLE15=A Number On My Back (with Pixie Jenkins and Warren H. Williams) (Live)
TTITLE16=True Blue (Live)
TTITLE17=A Bushman Can't Survive (Live)
TTITLE18=Glory To Australia (with Pixie Jenkins and Warren H. Williams) (Live)
TTITLE19=Mates On The Road (with Pixie Jenkins and Warren H. Williams) (Live)
EXTD=
EXTT0=
EXTT1=
EXTT2=
EXTT3=
EXTT4=
EXTT5=
EXTT6=
EXTT7=
EXTT8=
EXTT9=
EXTT10=
EXTT11=
EXTT12=
EXTT13=
EXTT14=
EXTT15=
EXTT16=
EXTT17=
EXTT18=
EXTT19=
PLAYORDER=
